<svg width="621" height="300" viewBox="0 0 621 300" fill="none" xmlns="http://www.w3.org/2000/svg">
<rect x="320.972" y="280" width="20" height="20" fill="#F2F4F7"/>
<rect x="340.972" y="280" width="20" height="20" fill="#F2F4F7"/>
<rect x="340.972" y="260" width="20" height="20" fill="#F2F4F7"/>
<rect x="360.972" y="240" width="20" height="20" fill="#F2F4F7"/>
<rect x="360.972" y="220" width="20" height="20" fill="#F2F4F7"/>
<rect width="20" height="20" transform="matrix(1 0 0 -1 320.972 20)" fill="#F2F4F7"/>
<rect width="20" height="20" transform="matrix(1 0 0 -1 340.972 20)" fill="#F2F4F7"/>
<rect width="20" height="20" transform="matrix(1 0 0 -1 340.972 40)" fill="#F2F4F7"/>
<rect width="20" height="20" transform="matrix(1 0 0 -1 360.972 60)" fill="#F2F4F7"/>
<rect width="20" height="20" transform="matrix(1 0 0 -1 360.972 80)" fill="#F2F4F7"/>
<rect width="20" height="20" transform="matrix(-1 0 0 1 300.972 280)" fill="#F2F4F7"/>
<rect width="20" height="20" transform="matrix(-1 0 0 1 280.972 280)" fill="#F2F4F7"/>
<rect width="20" height="20" transform="matrix(-1 0 0 1 280.972 260)" fill="#F2F4F7"/>
<rect width="20" height="20" transform="matrix(-1 0 0 1 260.972 240)" fill="#F2F4F7"/>
<rect width="20" height="20" transform="matrix(-1 0 0 1 260.972 220)" fill="#F2F4F7"/>
<rect x="300.972" y="20" width="20" height="20" transform="rotate(180 300.972 20)" fill="#F2F4F7"/>
<rect x="280.972" y="20" width="20" height="20" transform="rotate(180 280.972 20)" fill="#F2F4F7"/>
<rect x="280.972" y="40" width="20" height="20" transform="rotate(180 280.972 40)" fill="#F2F4F7"/>
<rect x="260.972" y="60" width="20" height="20" transform="rotate(180 260.972 60)" fill="#F2F4F7"/>
<rect x="260.972" y="80" width="20" height="20" transform="rotate(180 260.972 80)" fill="#F2F4F7"/>
<rect x="360.972" width="20" height="20" fill="#F2F4F7"/>
<rect x="380.972" y="20" width="20" height="20" fill="#F2F4F7"/>
<rect x="400.972" y="20" width="20" height="20" fill="#F2F4F7"/>
<rect x="420.972" y="40" width="20" height="20" fill="#F2F4F7"/>
<rect x="440.972" y="60" width="20" height="20" fill="#F2F4F7"/>
<rect x="460.972" y="80" width="20" height="20" fill="#F2F4F7"/>
<rect x="460.972" y="100" width="20" height="20" fill="#F2F4F7"/>
<rect x="480.972" y="120" width="20" height="20" fill="#F2F4F7"/>
<rect width="20" height="20" transform="matrix(1 0 0 -1 360.972 300)" fill="#F2F4F7"/>
<rect width="20" height="20" transform="matrix(1 0 0 -1 380.972 280)" fill="#F2F4F7"/>
<rect width="20" height="20" transform="matrix(1 0 0 -1 400.972 280)" fill="#F2F4F7"/>
<rect width="20" height="20" transform="matrix(1 0 0 -1 420.972 260)" fill="#F2F4F7"/>
<rect width="20" height="20" transform="matrix(1 0 0 -1 440.972 240)" fill="#F2F4F7"/>
<rect width="20" height="20" transform="matrix(1 0 0 -1 460.972 220)" fill="#F2F4F7"/>
<rect width="20" height="20" transform="matrix(1 0 0 -1 460.972 200)" fill="#F2F4F7"/>
<rect width="20" height="20" transform="matrix(1 0 0 -1 480.972 180)" fill="#F2F4F7"/>
<rect width="20" height="20" transform="matrix(-1 0 0 1 260.972 0)" fill="#F2F4F7"/>
<rect width="20" height="20" transform="matrix(-1 0 0 1 240.972 20)" fill="#F2F4F7"/>
<rect width="20" height="20" transform="matrix(-1 0 0 1 220.972 20)" fill="#F2F4F7"/>
<rect width="20" height="20" transform="matrix(-1 0 0 1 200.972 40)" fill="#F2F4F7"/>
<rect width="20" height="20" transform="matrix(-1 0 0 1 180.972 60)" fill="#F2F4F7"/>
<rect width="20" height="20" transform="matrix(-1 0 0 1 160.972 80)" fill="#F2F4F7"/>
<rect width="20" height="20" transform="matrix(-1 0 0 1 160.972 100)" fill="#F2F4F7"/>
<rect width="20" height="20" transform="matrix(-1 0 0 1 140.972 120)" fill="#F2F4F7"/>
<rect x="260.972" y="300" width="20" height="20" transform="rotate(180 260.972 300)" fill="#F2F4F7"/>
<rect x="240.972" y="280" width="20" height="20" transform="rotate(180 240.972 280)" fill="#F2F4F7"/>
<rect x="220.972" y="280" width="20" height="20" transform="rotate(180 220.972 280)" fill="#F2F4F7"/>
<rect x="200.972" y="260" width="20" height="20" transform="rotate(180 200.972 260)" fill="#F2F4F7"/>
<rect x="180.972" y="240" width="20" height="20" transform="rotate(180 180.972 240)" fill="#F2F4F7"/>
<rect x="160.972" y="220" width="20" height="20" transform="rotate(180 160.972 220)" fill="#F2F4F7"/>
<rect x="160.972" y="200" width="20" height="20" transform="rotate(180 160.972 200)" fill="#F2F4F7"/>
<rect x="140.972" y="180" width="20" height="20" transform="rotate(180 140.972 180)" fill="#F2F4F7"/>
<rect x="400.972" width="20" height="20" fill="#F2F4F7"/>
<rect x="420.972" y="20" width="20" height="20" fill="#F2F4F7"/>
<rect x="420.972" width="20" height="20" fill="#F2F4F7"/>
<rect x="440.972" y="20" width="20" height="20" fill="#F2F4F7"/>
<rect x="460.972" y="40" width="20" height="20" fill="#F2F4F7"/>
<rect x="460.972" y="20" width="20" height="20" fill="#F2F4F7"/>
<rect x="480.972" y="40" width="20" height="20" fill="#F2F4F7"/>
<rect x="500.972" y="60" width="20" height="20" fill="#F2F4F7"/>
<rect x="520.972" y="80" width="20" height="20" fill="#F2F4F7"/>
<rect x="540.972" y="100" width="20" height="20" fill="#F2F4F7"/>
<rect x="540.972" y="120" width="20" height="20" fill="#F2F4F7"/>
<rect x="380.972" width="20" height="20" fill="#F2F4F7"/>
<rect width="20" height="20" transform="matrix(1 0 0 -1 400.972 300)" fill="#F2F4F7"/>
<rect width="20" height="20" transform="matrix(1 0 0 -1 380.972 300)" fill="#F2F4F7"/>
<rect width="20" height="20" transform="matrix(1 0 0 -1 420.972 280)" fill="#F2F4F7"/>
<rect width="20" height="20" transform="matrix(1 0 0 -1 420.972 300)" fill="#F2F4F7"/>
<rect width="20" height="20" transform="matrix(1 0 0 -1 440.972 280)" fill="#F2F4F7"/>
<rect width="20" height="20" transform="matrix(1 0 0 -1 460.972 260)" fill="#F2F4F7"/>
<rect width="20" height="20" transform="matrix(1 0 0 -1 460.972 280)" fill="#F2F4F7"/>
<rect width="20" height="20" transform="matrix(1 0 0 -1 480.972 260)" fill="#F2F4F7"/>
<rect width="20" height="20" transform="matrix(1 0 0 -1 500.972 240)" fill="#F2F4F7"/>
<rect width="20" height="20" transform="matrix(1 0 0 -1 520.972 220)" fill="#F2F4F7"/>
<rect width="20" height="20" transform="matrix(1 0 0 -1 540.972 200)" fill="#F2F4F7"/>
<rect width="20" height="20" transform="matrix(1 0 0 -1 540.972 180)" fill="#F2F4F7"/>
<rect width="20" height="20" transform="matrix(-1 0 0 1 220.972 0)" fill="#F2F4F7"/>
<rect width="20" height="20" transform="matrix(-1 0 0 1 200.972 20)" fill="#F2F4F7"/>
<rect width="20" height="20" transform="matrix(-1 0 0 1 200.972 0)" fill="#F2F4F7"/>
<rect width="20" height="20" transform="matrix(-1 0 0 1 180.972 20)" fill="#F2F4F7"/>
<rect width="20" height="20" transform="matrix(-1 0 0 1 160.972 40)" fill="#F2F4F7"/>
<rect width="20" height="20" transform="matrix(-1 0 0 1 160.972 20)" fill="#F2F4F7"/>
<rect width="20" height="20" transform="matrix(-1 0 0 1 140.972 40)" fill="#F2F4F7"/>
<rect width="20" height="20" transform="matrix(-1 0 0 1 120.972 60)" fill="#F2F4F7"/>
<rect width="20" height="20" transform="matrix(-1 0 0 1 100.972 80)" fill="#F2F4F7"/>
<rect width="20" height="20" transform="matrix(-1 0 0 1 80.9717 100)" fill="#F2F4F7"/>
<rect width="20" height="20" transform="matrix(-1 0 0 1 80.9717 120)" fill="#F2F4F7"/>
<rect width="20" height="20" transform="matrix(-1 0 0 1 240.972 0)" fill="#F2F4F7"/>
<rect x="220.972" y="300" width="20" height="20" transform="rotate(180 220.972 300)" fill="#F2F4F7"/>
<rect x="240.972" y="300" width="20" height="20" transform="rotate(180 240.972 300)" fill="#F2F4F7"/>
<rect x="200.972" y="280" width="20" height="20" transform="rotate(180 200.972 280)" fill="#F2F4F7"/>
<rect x="200.972" y="300" width="20" height="20" transform="rotate(180 200.972 300)" fill="#F2F4F7"/>
<rect x="180.972" y="280" width="20" height="20" transform="rotate(180 180.972 280)" fill="#F2F4F7"/>
<rect x="160.972" y="260" width="20" height="20" transform="rotate(180 160.972 260)" fill="#F2F4F7"/>
<rect x="160.972" y="280" width="20" height="20" transform="rotate(180 160.972 280)" fill="#F2F4F7"/>
<rect x="140.972" y="260" width="20" height="20" transform="rotate(180 140.972 260)" fill="#F2F4F7"/>
<rect x="120.972" y="240" width="20" height="20" transform="rotate(180 120.972 240)" fill="#F2F4F7"/>
<rect x="100.972" y="220" width="20" height="20" transform="rotate(180 100.972 220)" fill="#F2F4F7"/>
<rect x="80.9717" y="200" width="20" height="20" transform="rotate(180 80.9717 200)" fill="#F2F4F7"/>
<rect x="80.9717" y="180" width="20" height="20" transform="rotate(180 80.9717 180)" fill="#F2F4F7"/>
<rect x="480.972" y="20" width="20" height="20" fill="#F2F4F7"/>
<rect x="500.972" y="20" width="20" height="20" fill="#F2F4F7"/>
<rect x="500.972" y="40" width="20" height="20" fill="#F2F4F7"/>
<rect x="520.972" y="40" width="20" height="20" fill="#F2F4F7"/>
<rect x="540.972" y="40" width="20" height="20" fill="#F2F4F7"/>
<rect x="540.972" y="60" width="20" height="20" fill="#F2F4F7"/>
<rect x="560.972" y="60" width="20" height="20" fill="#F2F4F7"/>
<rect x="560.972" y="80" width="20" height="20" fill="#F2F4F7"/>
<rect x="580.972" y="80" width="20" height="20" fill="#F2F4F7"/>
<rect x="600.972" y="100" width="20" height="20" fill="#F2F4F7"/>
<rect x="600.972" y="120" width="20" height="20" fill="#F2F4F7"/>
<rect width="20" height="20" transform="matrix(1 0 0 -1 480.972 280)" fill="#F2F4F7"/>
<rect width="20" height="20" transform="matrix(1 0 0 -1 500.972 280)" fill="#F2F4F7"/>
<rect width="20" height="20" transform="matrix(1 0 0 -1 500.972 260)" fill="#F2F4F7"/>
<rect width="20" height="20" transform="matrix(1 0 0 -1 520.972 260)" fill="#F2F4F7"/>
<rect width="20" height="20" transform="matrix(1 0 0 -1 540.972 260)" fill="#F2F4F7"/>
<rect width="20" height="20" transform="matrix(1 0 0 -1 540.972 240)" fill="#F2F4F7"/>
<rect width="20" height="20" transform="matrix(1 0 0 -1 560.972 240)" fill="#F2F4F7"/>
<rect width="20" height="20" transform="matrix(1 0 0 -1 560.972 220)" fill="#F2F4F7"/>
<rect width="20" height="20" transform="matrix(1 0 0 -1 580.972 220)" fill="#F2F4F7"/>
<rect width="20" height="20" transform="matrix(1 0 0 -1 600.972 200)" fill="#F2F4F7"/>
<rect width="20" height="20" transform="matrix(1 0 0 -1 600.972 180)" fill="#F2F4F7"/>
<rect width="20" height="20" transform="matrix(-1 0 0 1 140.972 20)" fill="#F2F4F7"/>
<rect width="20" height="20" transform="matrix(-1 0 0 1 120.972 20)" fill="#F2F4F7"/>
<rect width="20" height="20" transform="matrix(-1 0 0 1 120.972 40)" fill="#F2F4F7"/>
<rect width="20" height="20" transform="matrix(-1 0 0 1 100.972 40)" fill="#F2F4F7"/>
<rect width="20" height="20" transform="matrix(-1 0 0 1 80.9717 40)" fill="#F2F4F7"/>
<rect width="20" height="20" transform="matrix(-1 0 0 1 80.9717 60)" fill="#F2F4F7"/>
<rect width="20" height="20" transform="matrix(-1 0 0 1 60.9717 60)" fill="#F2F4F7"/>
<rect width="20" height="20" transform="matrix(-1 0 0 1 60.9717 80)" fill="#F2F4F7"/>
<rect width="20" height="20" transform="matrix(-1 0 0 1 40.9717 80)" fill="#F2F4F7"/>
<rect width="20" height="20" transform="matrix(-1 0 0 1 20.9717 100)" fill="#F2F4F7"/>
<rect width="20" height="20" transform="matrix(-1 0 0 1 20.9717 120)" fill="#F2F4F7"/>
<rect x="140.972" y="280" width="20" height="20" transform="rotate(180 140.972 280)" fill="#F2F4F7"/>
<rect x="120.972" y="280" width="20" height="20" transform="rotate(180 120.972 280)" fill="#F2F4F7"/>
<rect x="120.972" y="260" width="20" height="20" transform="rotate(180 120.972 260)" fill="#F2F4F7"/>
<rect x="100.972" y="260" width="20" height="20" transform="rotate(180 100.972 260)" fill="#F2F4F7"/>
<rect x="80.9717" y="260" width="20" height="20" transform="rotate(180 80.9717 260)" fill="#F2F4F7"/>
<rect x="80.9717" y="240" width="20" height="20" transform="rotate(180 80.9717 240)" fill="#F2F4F7"/>
<rect x="60.9717" y="240" width="20" height="20" transform="rotate(180 60.9717 240)" fill="#F2F4F7"/>
<rect x="60.9717" y="220" width="20" height="20" transform="rotate(180 60.9717 220)" fill="#F2F4F7"/>
<rect x="40.9717" y="220" width="20" height="20" transform="rotate(180 40.9717 220)" fill="#F2F4F7"/>
<rect x="20.9717" y="200" width="20" height="20" transform="rotate(180 20.9717 200)" fill="#F2F4F7"/>
<rect x="20.9717" y="180" width="20" height="20" transform="rotate(180 20.9717 180)" fill="#F2F4F7"/>
<rect x="300.972" y="260" width="20" height="20" fill="#F2F4F7"/>
<rect x="300.972" y="220" width="20" height="20" fill="#F2F4F7"/>
<rect x="300.972" y="40" width="20" height="20" fill="#F2F4F7"/>
<rect x="300.972" width="20" height="20" fill="#F2F4F7"/>
<rect x="300.972" y="280" width="20" height="20" fill="#F2F4F7"/>
<rect x="300.972" y="240" width="20" height="20" fill="#F2F4F7"/>
<rect x="300.972" y="60" width="20" height="20" fill="#F2F4F7"/>
<rect x="300.972" y="20" width="20" height="20" fill="#F2F4F7"/>
<rect x="120.972" y="140" width="20" height="20" transform="rotate(90 120.972 140)" fill="#F2F4F7"/>
<rect x="80.9717" y="140" width="20" height="20" transform="rotate(90 80.9717 140)" fill="#F2F4F7"/>
<rect x="500.972" y="140" width="20" height="20" transform="rotate(90 500.972 140)" fill="#F2F4F7"/>
<rect x="160.972" y="140" width="20" height="20" transform="rotate(90 160.972 140)" fill="#F2F4F7"/>
<rect x="540.972" y="140" width="20" height="20" transform="rotate(90 540.972 140)" fill="#F2F4F7"/>
<rect x="460.972" y="140" width="20" height="20" transform="rotate(90 460.972 140)" fill="#F2F4F7"/>
<rect x="580.972" y="140" width="20" height="20" transform="rotate(90 580.972 140)" fill="#F2F4F7"/>
<rect x="600.972" y="140" width="20" height="20" transform="rotate(90 600.972 140)" fill="#F2F4F7"/>
<rect x="620.972" y="140" width="20" height="20" transform="rotate(90 620.972 140)" fill="#F2F4F7"/>
<rect x="200.972" y="140" width="20" height="20" transform="rotate(90 200.972 140)" fill="#F2F4F7"/>
<rect x="100.972" y="140" width="20" height="20" transform="rotate(90 100.972 140)" fill="#F2F4F7"/>
<rect x="60.9717" y="140" width="20" height="20" transform="rotate(90 60.9717 140)" fill="#F2F4F7"/>
<rect x="40.9717" y="140" width="20" height="20" transform="rotate(90 40.9717 140)" fill="#F2F4F7"/>
<rect x="20.9717" y="140" width="20" height="20" transform="rotate(90 20.9717 140)" fill="#F2F4F7"/>
<rect x="180.972" y="140" width="20" height="20" transform="rotate(90 180.972 140)" fill="#F2F4F7"/>
<rect x="480.972" y="140" width="20" height="20" transform="rotate(90 480.972 140)" fill="#F2F4F7"/>
<rect x="140.972" y="140" width="20" height="20" transform="rotate(90 140.972 140)" fill="#F2F4F7"/>
<rect x="520.972" y="140" width="20" height="20" transform="rotate(90 520.972 140)" fill="#F2F4F7"/>
<rect x="440.972" y="140" width="20" height="20" transform="rotate(90 440.972 140)" fill="#F2F4F7"/>
<rect x="560.972" y="140" width="20" height="20" transform="rotate(90 560.972 140)" fill="#F2F4F7"/>
<rect x="200.972" y="240" width="20" height="20" fill="#F2F4F7"/>
<rect x="400.972" y="240" width="20" height="20" fill="#F2F4F7"/>
<rect width="20" height="20" transform="matrix(1 0 0 -1 200.972 60)" fill="#F2F4F7"/>
<rect width="20" height="20" transform="matrix(1 0 0 -1 400.972 60)" fill="#F2F4F7"/>
<path d="M326.047 188.79V111.211H395.868V125.618L388.11 133.376H350.429V143.351H382.569V165.516H350.429V188.79H326.047Z" fill="#F2F4F7"/>
<path d="M234.074 188.79V111.211H258.456V138.918H291.704V111.211H316.086V188.79H291.704V161.083H258.456V188.79H234.074Z" fill="#F2F4F7"/>
</svg>
