<svg width="800" height="316" viewBox="0 0 800 316" fill="none" xmlns="http://www.w3.org/2000/svg">
<path d="M781.046 313.752C777.864 313.752 774.915 312.957 772.201 311.366C769.486 309.774 767.287 307.622 765.602 304.907C764.011 302.193 763.215 299.198 763.215 295.922V261.102H754.65V241.446H764.479L772.903 222.492H785.96V241.446H799.018V255.486L793.963 261.102H785.96V288.902C785.96 290.025 786.241 290.867 786.803 291.429C787.364 291.99 788.16 292.271 789.189 292.271H800V313.752H781.046Z" fill="#F2F4F7"/>
<path d="M696.31 313.759V294.103H722.986C724.016 294.103 724.765 293.869 725.233 293.401C725.794 292.84 726.075 292.138 726.075 291.295V290.453C726.075 289.61 725.794 288.955 725.233 288.487C724.765 288.019 723.922 287.598 722.705 287.224L710.209 283.433C707.121 282.403 704.547 281.233 702.487 279.923C700.522 278.519 698.977 276.787 697.854 274.728C696.824 272.575 696.31 270.048 696.31 267.146V259.284C696.31 256.008 697.105 253.013 698.696 250.298C700.381 247.584 702.581 245.431 705.295 243.84C708.01 242.249 710.958 241.453 714.141 241.453H746.855V255.493L741.8 261.109H722.565C721.535 261.109 720.74 261.343 720.178 261.811C719.71 262.186 719.476 262.794 719.476 263.636V264.338C719.476 265.087 719.757 265.742 720.318 266.304C720.88 266.866 721.722 267.287 722.846 267.568L735.482 271.499C738.571 272.435 741.098 273.605 743.064 275.009C745.123 276.319 746.667 278.004 747.697 280.063C748.727 282.122 749.241 284.603 749.241 287.504V295.929C749.241 299.205 748.446 302.2 746.855 304.914C745.263 307.629 743.11 309.781 740.396 311.373C737.682 312.964 734.686 313.759 731.41 313.759H696.31Z" fill="#F2F4F7"/>
<path d="M646.156 313.757C642.88 313.757 639.885 312.962 637.171 311.37C634.456 309.779 632.303 307.626 630.712 304.912C629.121 302.197 628.325 299.202 628.325 295.926V257.878C628.325 254.602 629.121 251.607 630.712 248.892C632.303 246.178 634.456 244.025 637.171 242.434C639.885 240.842 642.88 240.047 646.156 240.047H668.34C671.522 240.047 674.471 240.842 677.185 242.434C679.9 244.025 682.053 246.178 683.644 248.892C685.329 251.607 686.171 254.602 686.171 257.878V285.677H651.07V291.714C651.07 292.837 651.351 293.68 651.913 294.241C652.474 294.803 653.27 295.084 654.3 295.084H682.801V313.757H646.156ZM650.509 270.514H663.847V261.809C663.847 260.686 663.566 259.89 663.005 259.422C662.537 258.861 661.741 258.58 660.618 258.58H653.878C652.755 258.58 651.913 258.861 651.351 259.422C650.79 259.89 650.509 260.686 650.509 261.809V270.514Z" fill="#F2F4F7"/>
<path d="M581.74 232.604C581.74 229.328 582.536 226.333 584.127 223.619C585.718 220.904 587.871 218.751 590.586 217.16C593.3 215.569 596.295 214.773 599.571 214.773H625.546V234.43H607.715C606.685 234.43 605.889 234.71 605.328 235.272C604.766 235.74 604.485 236.536 604.485 237.659V248.47H619.93V262.229L617.262 268.126H604.485V313.756H581.74V232.604Z" fill="#F2F4F7"/>
<path d="M529.348 313.757V241.451H543.669L546.898 249.173H547.6C548.723 246.833 550.502 244.727 552.935 242.855C555.369 240.983 558.177 240.047 561.359 240.047H572.592V262.932H556.024C555.088 262.932 554.339 263.119 553.778 263.494C553.216 263.775 552.795 264.196 552.514 264.757C552.233 265.319 552.093 266.068 552.093 267.004V313.757H529.348Z" fill="#F2F4F7"/>
<path d="M477.509 313.757C474.233 313.757 471.238 312.962 468.523 311.37C465.809 309.779 463.656 307.626 462.065 304.912C460.473 302.197 459.678 299.202 459.678 295.926V257.878C459.678 254.602 460.473 251.607 462.065 248.892C463.656 246.178 465.809 244.025 468.523 242.434C471.238 240.842 474.233 240.047 477.509 240.047H499.693C502.875 240.047 505.823 240.842 508.538 242.434C511.252 244.025 513.405 246.178 514.996 248.892C516.681 251.607 517.524 254.602 517.524 257.878V285.677H482.423V291.714C482.423 292.837 482.704 293.68 483.265 294.241C483.827 294.803 484.623 295.084 485.652 295.084H514.154V313.757H477.509ZM481.861 270.514H495.2V261.809C495.2 260.686 494.919 259.89 494.357 259.422C493.889 258.861 493.094 258.58 491.97 258.58H485.231C484.108 258.58 483.265 258.861 482.704 259.422C482.142 259.89 481.861 260.686 481.861 261.809V270.514Z" fill="#F2F4F7"/>
<path d="M389.92 313.75V216.172H412.665V248.885H413.367C414.397 246.639 416.082 244.626 418.422 242.848C420.855 240.976 423.663 240.04 426.846 240.04H431.058C434.334 240.04 437.282 240.789 439.903 242.286C442.524 243.784 444.583 245.89 446.081 248.604C447.672 251.225 448.468 254.127 448.468 257.309V295.919C448.468 299.195 447.625 302.191 445.941 304.905C444.349 307.619 442.197 309.772 439.482 311.363C436.768 312.955 433.819 313.75 430.637 313.75H389.92ZM422.915 292.69C424.038 292.69 424.833 292.409 425.301 291.848C425.863 291.286 426.144 290.491 426.144 289.461V264.329C426.144 263.206 425.863 262.41 425.301 261.942C424.833 261.381 424.038 261.1 422.915 261.1H417.579C416.269 261.1 415.239 261.287 414.49 261.662C413.742 262.036 413.133 262.644 412.665 263.487C412.291 264.236 412.104 265.218 412.104 266.435V292.69H422.915Z" fill="#F2F4F7"/>
<path d="M336.558 315.161C333.282 315.161 330.286 314.366 327.572 312.774C324.857 311.183 322.705 309.03 321.113 306.316C319.522 303.601 318.727 300.606 318.727 297.33V257.878C318.727 254.602 319.522 251.607 321.113 248.892C322.705 246.178 324.857 244.025 327.572 242.434C330.286 240.842 333.282 240.047 336.558 240.047H359.443C362.626 240.047 365.574 240.842 368.289 242.434C371.003 244.025 373.156 246.178 374.747 248.892C376.432 251.607 377.275 254.602 377.275 257.878V297.33C377.275 300.606 376.432 303.601 374.747 306.316C373.156 309.03 371.003 311.183 368.289 312.774C365.574 314.366 362.626 315.161 359.443 315.161H336.558ZM351.721 294.101C352.844 294.101 353.64 293.82 354.108 293.259C354.67 292.697 354.95 291.901 354.95 290.872V264.336C354.95 263.213 354.67 262.417 354.108 261.949C353.64 261.388 352.844 261.107 351.721 261.107H344.28C343.157 261.107 342.314 261.388 341.753 261.949C341.191 262.417 340.91 263.213 340.91 264.336V290.872C340.91 291.901 341.191 292.697 341.753 293.259C342.314 293.82 343.157 294.101 344.28 294.101H351.721Z" fill="#F2F4F7"/>
<path d="M291.281 313.752C288.099 313.752 285.151 312.957 282.436 311.366C279.722 309.774 277.522 307.622 275.837 304.907C274.246 302.193 273.45 299.198 273.45 295.922V261.102H264.886V241.446H274.714L283.138 222.492H296.196V241.446H309.253V255.486L304.198 261.102H296.196V288.902C296.196 290.025 296.476 290.867 297.038 291.429C297.6 291.99 298.395 292.271 299.425 292.271H310.236V313.752H291.281Z" fill="#F2F4F7"/>
<path d="M200.98 313.75V216.172H223.726V267.137H229.061L238.608 241.444H259.248V251.974L248.296 276.825L260.23 303.22V313.75H238.889L229.061 287.776H223.726V313.75H200.98Z" fill="#F2F4F7"/>
<path d="M158.448 313.759C155.172 313.759 152.177 312.964 149.463 311.373C146.748 309.781 144.595 307.629 143.004 304.914C141.413 302.2 140.617 299.205 140.617 295.929V259.284C140.617 256.008 141.413 253.013 143.004 250.298C144.595 247.584 146.748 245.431 149.463 243.84C152.177 242.249 155.172 241.453 158.448 241.453H189.758V257.88L185.125 262.934H166.592C165.562 262.934 164.766 263.215 164.205 263.777C163.643 264.338 163.362 265.181 163.362 266.304V288.908C163.362 290.032 163.643 290.874 164.205 291.436C164.766 291.997 165.562 292.278 166.592 292.278H189.758V313.759H158.448Z" fill="#F2F4F7"/>
<path d="M88.7468 315.163C85.4708 315.163 82.5223 314.415 79.9015 312.917C77.2806 311.419 75.1746 309.36 73.5834 306.739C72.0857 304.025 71.3369 301.077 71.3369 297.894V286.802C71.3369 283.62 72.0857 280.718 73.5834 278.098C75.1746 275.383 77.2806 273.277 79.9015 271.78C82.5223 270.282 85.4708 269.533 88.7468 269.533H106.016V263.215C106.016 262.092 105.736 261.296 105.174 260.828C104.706 260.267 103.91 259.986 102.787 259.986H77.655V241.453H111.352C114.628 241.453 117.576 242.202 120.197 243.7C122.818 245.197 124.877 247.303 126.375 250.018C127.966 252.638 128.762 255.54 128.762 258.722V313.759H114.441L111.211 306.037H110.509C109.386 308.377 107.561 310.483 105.034 312.355C102.6 314.227 99.7919 315.163 96.6094 315.163H88.7468ZM101.102 296.911C102.226 296.911 103.162 296.724 103.91 296.35C104.753 295.882 105.361 295.273 105.736 294.525C106.204 293.682 106.438 292.699 106.438 291.576V284.696H96.469C95.3458 284.696 94.5034 284.977 93.9418 285.539C93.3801 286.1 93.0993 286.943 93.0993 288.066V293.682C93.0993 294.712 93.3801 295.507 93.9418 296.069C94.5034 296.631 95.3458 296.911 96.469 296.911H101.102Z" fill="#F2F4F7"/>
<path d="M0 313.749V215.469H23.4473V253.377H35.8027V215.469H59.25V313.749H35.8027V275.139H23.4473V313.749H0Z" fill="#F2F4F7"/>
<path fill-rule="evenodd" clip-rule="evenodd" d="M427.056 0.835938H437.878H437.878H448.7V11.6578H437.878H437.878H427.057V11.6624V22.4787H416.235V11.6624V11.6569V0.84049H427.056V0.835938ZM416.234 11.6624H405.412V22.4787V22.4843V33.3006H394.59V22.4843V22.4787V11.6624H405.412V11.6578H394.59V11.6624H383.768V0.84049H394.59V0.835938H405.412V0.84049H416.234V11.6624ZM427.056 119.876H437.878V130.698H427.056V119.876ZM437.878 130.703H427.056V141.519H416.235V152.341H427.056V152.346H416.235V163.168H427.057V163.162H437.878H437.878H448.7V152.346V152.34V141.524H437.878V130.703ZM437.878 152.34V141.525H427.057V152.34H437.878ZM416.234 152.346H405.412H405.412H394.59H383.768V163.168H394.59H405.412H405.412H416.234V152.346ZM427.056 22.4833V33.2997V33.3052V44.1215H437.878V33.3052V33.2997V22.4843H448.7V11.6624H437.878V22.4833H427.056ZM362.124 163.162H372.945V163.168H383.767V152.346H372.946V152.341H383.767V141.519H372.946V130.703H362.124V141.524H351.302V152.34V152.346V163.162H362.124H362.124ZM362.124 152.34H372.945V141.525H362.124V152.34ZM372.946 119.876H362.124V130.698H372.946V119.876ZM383.767 0.84049V11.6569V11.6624V22.4787H372.945V11.6624V11.6578H362.124H362.124H351.302V0.835938H362.124H362.124H372.946V0.84049H383.767ZM372.946 22.4833V33.2997V33.3052V44.1215H362.124V33.3052V33.2997V22.4843H351.302V11.6624H362.124V22.4833H372.946ZM448.701 11.6624H459.522H459.523H470.344V22.4787V22.4843V33.3006H459.523V33.3052H448.701V22.4843V22.4833V11.6624ZM470.345 33.3052H481.167V44.1215H491.989V54.9434H481.167V44.1271H470.345V33.3052ZM481.167 54.948H491.989V65.7699H481.167V54.948ZM502.81 65.7744H491.988V76.5908H481.167H481.166H470.345H470.345H459.523V87.4127H470.345H470.345H481.166H481.167H491.988V98.2336H502.81V87.4127H502.811H502.811H513.632H513.633H524.454V98.2336H535.276V87.4127H535.277H535.277H546.099V76.5908H535.277H535.277H535.276V65.7744H524.454V76.5908H513.633H513.632H502.811H502.811H502.81V65.7744ZM524.455 76.5963H524.454V87.4117H524.455V76.5963ZM491.988 87.4117H491.989V76.5963H491.988V87.4117ZM448.701 141.525V141.524V130.703H459.522V130.697H470.344V141.519H459.523V141.524H470.344V152.34V152.346V163.162H459.523H459.522H448.701V152.346V152.34V141.525ZM481.167 130.703H470.345V119.881H481.167V130.697H491.988H491.989H502.81V141.519H491.989H491.988H481.167V130.703ZM491.989 119.876H481.167V109.06V109.055V98.2382H491.989V109.055V109.06V119.876ZM351.301 11.6624H340.48H340.479H329.658V22.4787V22.4843V33.3006H340.48V33.3052H351.302V22.4833H351.301V11.6624ZM329.657 33.3052H318.835V44.1215H308.013V54.9434H318.835V44.1271H329.657V33.3052ZM318.835 54.948H308.013V65.7699H318.835V54.948ZM297.192 65.7744H308.014V76.5908H318.835H318.835H329.657V87.4127H318.835H318.835H308.014V98.2336H297.192L297.192 87.4127L297.192 87.4117V76.5963V76.5908V65.7744ZM340.479 163.162H329.658V152.346V152.34V141.524H340.479H340.48V141.519H329.658V130.697H340.48V130.703H351.302V141.525H351.301V152.34V152.346V163.162H340.48H340.479ZM318.835 130.703H329.657V119.881H318.835V130.697H308.014H308.013H297.192V141.519H308.013H308.014H318.835V130.703ZM308.013 119.876H318.835V109.06V109.055V98.2382H308.013V109.055V109.06V119.876ZM448.701 0.835938H459.523V11.6578H448.701V0.835938ZM459.524 0.835938H470.346V11.6578H459.524V0.835938ZM481.167 11.6624H470.345V22.4843H481.167V33.3006H491.988H491.989H502.81V22.4843V22.4787V11.6624H491.989H491.988H481.167H481.167ZM513.633 33.3052H502.811V44.1271H513.633V54.9434H524.455V44.1271H535.276V33.3052H524.454V44.1215H513.633V33.3052ZM535.276 54.948H524.454V65.7699H535.276V54.948ZM470.345 152.346H481.167H481.167H491.988H491.989H502.81V141.524H491.989H491.988H481.167H481.167H470.345V152.346ZM502.811 119.881V130.697V130.703V141.519H513.633H513.633H524.454H524.455H535.276V130.703V130.697V119.881H524.454V130.697H513.633V119.881H502.811ZM524.455 119.876H513.633V109.055H524.454V98.2382H535.276V109.06H524.455V119.876ZM351.301 0.835938H340.48H340.479H329.658V11.6578H340.479H340.48H351.301V0.835938ZM318.835 11.6624H329.657V22.4843H318.835V33.3006H308.014H308.013H297.192V22.4843V22.4787V11.6624H308.013H308.014H318.835H318.835ZM286.369 33.3052H297.191V44.1271H286.37V54.9434H275.547V44.1271H264.726V33.3052H275.548V44.1215H286.369V33.3052ZM264.726 54.948H275.548V65.7699H264.726V54.948ZM275.548 65.7744H264.726V76.5908V76.5963V87.4117V87.4127V98.2336H275.548V87.4127H286.369H286.37H297.191V76.5908H286.37H286.369H275.548V65.7744ZM329.657 152.346H318.835H318.835H308.014H308.013H297.192V141.524H308.013H308.014H318.835H318.835H329.657V152.346ZM297.191 119.881V130.697V130.703V141.519H286.37H286.369H275.548H275.547H264.726V130.703V130.697V119.881H275.548V130.697H286.369V119.881H297.191ZM275.547 119.876H286.37V109.055H275.548V98.2382H264.726V109.06H275.547V119.876ZM513.633 11.6624H502.811V22.4787V22.4843V33.3006H513.633H513.633H524.454H524.455H535.276V22.4787H524.455H524.454H513.633V11.6624ZM535.277 33.3052H546.099V44.1215H556.921V54.9434H546.099H546.099H535.277V44.1271V44.1215V33.3052ZM567.744 54.948H556.922V65.7699H567.744V54.948ZM556.922 65.7744H567.744V76.5963H567.743V87.4117H567.744V98.2336H556.922V87.4127H556.921H546.099V76.5908H556.921H556.922V65.7744ZM502.811 152.346H513.633V141.524H502.811V152.346ZM546.099 130.703H535.277V119.881H546.099V130.703ZM535.277 119.876H546.099H546.099H556.921V109.055H546.099H546.099H535.277V119.876ZM556.922 109.06H567.744V98.2382H556.922V109.06ZM286.369 11.6624H297.191V22.4787V22.4843V33.3006H286.37H286.369H275.548H275.547H264.726V22.4787H275.547H275.548H286.369V11.6624ZM264.725 33.3052H253.903V44.1215H243.081V54.9434H253.903H253.904H264.725V44.1271V44.1215V33.3052ZM232.259 54.948H243.081V65.7699H232.259V54.948ZM243.081 65.7744H232.259V76.5908V76.5963V87.4117L232.259 87.4127L232.259 98.2336H243.081V87.4127V87.4117V76.5963V76.5908V65.7744ZM297.191 152.346H286.369V141.524H297.191V152.346ZM253.903 130.703H264.725V119.881H253.903V130.703ZM264.725 119.876H253.904H253.903H243.081V109.055H253.903H253.904H264.725V119.876ZM243.081 109.06H232.259V98.2382H243.081V109.06ZM394.59 152.341V141.525V141.519V130.703H405.412V141.519V141.525V152.341H394.59ZM405.412 119.876H394.59V130.698H405.412V119.876ZM394.59 33.3052H405.412V44.1271H394.59V33.3052ZM340.48 87.4127V76.5908H329.658V87.4127H340.48ZM264.725 87.4127V76.5908H253.904H253.903H243.081V87.4127H253.903H253.904H264.725Z" fill="#F2F4F7"/>
<path d="M408.157 102.993V61.0156H445.938V68.8115L441.74 73.0092H421.35V78.4063H438.741V90.3999H421.35V102.993H408.157Z" fill="#F2F4F7"/>
<path d="M358.391 102.993V61.0156H371.584V76.0076H389.574V61.0156H402.768V102.993H389.574V88.0012H371.584V102.993H358.391Z" fill="#F2F4F7"/>
</svg>
