<svg width="800" height="316" viewBox="0 0 800 316" fill="none" xmlns="http://www.w3.org/2000/svg">
<path d="M781.046 313.84C777.864 313.84 774.915 313.044 772.201 311.453C769.486 309.862 767.287 307.709 765.602 304.995C764.011 302.28 763.215 299.285 763.215 296.009V261.189H754.65V241.532H764.479L772.903 222.578H785.96V241.532H799.018V255.573L793.963 261.189H785.96V288.989C785.96 290.112 786.241 290.954 786.803 291.516C787.364 292.077 788.16 292.358 789.189 292.358H800V313.84H781.046Z" fill="#1C1C3F"/>
<path d="M696.31 313.839V294.182H722.986C724.016 294.182 724.765 293.948 725.233 293.48C725.794 292.919 726.075 292.217 726.075 291.374V290.532C726.075 289.689 725.794 289.034 725.233 288.566C724.765 288.098 723.922 287.677 722.705 287.303L710.209 283.512C707.121 282.482 704.547 281.312 702.487 280.002C700.522 278.598 698.977 276.866 697.854 274.807C696.824 272.654 696.31 270.127 696.31 267.225V259.362C696.31 256.086 697.105 253.091 698.696 250.377C700.381 247.662 702.581 245.509 705.295 243.918C708.01 242.327 710.958 241.531 714.141 241.531H746.855V255.572L741.8 261.188H722.565C721.535 261.188 720.74 261.422 720.178 261.89C719.71 262.264 719.476 262.872 719.476 263.715V264.417C719.476 265.166 719.757 265.821 720.318 266.383C720.88 266.944 721.722 267.365 722.846 267.646L735.482 271.577C738.571 272.513 741.098 273.683 743.064 275.088C745.123 276.398 746.667 278.083 747.697 280.142C748.727 282.201 749.241 284.682 749.241 287.583V296.008C749.241 299.284 748.446 302.279 746.855 304.993C745.263 307.708 743.11 309.861 740.396 311.452C737.682 313.043 734.686 313.839 731.41 313.839H696.31Z" fill="#1C1C3F"/>
<path d="M646.156 313.844C642.88 313.844 639.885 313.049 637.171 311.457C634.456 309.866 632.303 307.713 630.712 304.999C629.121 302.284 628.325 299.289 628.325 296.013V257.964C628.325 254.688 629.121 251.693 630.712 248.978C632.303 246.264 634.456 244.111 637.171 242.52C639.885 240.928 642.88 240.133 646.156 240.133H668.34C671.522 240.133 674.471 240.928 677.185 242.52C679.9 244.111 682.053 246.264 683.644 248.978C685.329 251.693 686.171 254.688 686.171 257.964V285.764H651.07V291.801C651.07 292.924 651.351 293.767 651.913 294.328C652.474 294.89 653.27 295.171 654.3 295.171H682.801V313.844H646.156ZM650.509 270.6H663.847V261.895C663.847 260.772 663.566 259.976 663.005 259.508C662.537 258.947 661.741 258.666 660.618 258.666H653.878C652.755 258.666 651.913 258.947 651.351 259.508C650.79 259.976 650.509 260.772 650.509 261.895V270.6Z" fill="#1C1C3F"/>
<path d="M581.74 232.691C581.74 229.414 582.536 226.419 584.127 223.705C585.718 220.99 587.871 218.837 590.586 217.246C593.3 215.655 596.295 214.859 599.571 214.859H625.546V234.516H607.715C606.685 234.516 605.889 234.797 605.328 235.358C604.766 235.826 604.485 236.622 604.485 237.745V248.556H619.93V262.316L617.262 268.212H604.485V313.843H581.74V232.691Z" fill="#1C1C3F"/>
<path d="M529.348 313.844V241.537H543.669L546.898 249.259H547.6C548.723 246.919 550.502 244.813 552.935 242.941C555.369 241.069 558.177 240.133 561.359 240.133H572.592V263.018H556.024C555.088 263.018 554.339 263.206 553.778 263.58C553.216 263.861 552.795 264.282 552.514 264.844C552.233 265.405 552.093 266.154 552.093 267.09V313.844H529.348Z" fill="#1C1C3F"/>
<path d="M477.509 313.844C474.233 313.844 471.238 313.049 468.523 311.457C465.809 309.866 463.656 307.713 462.065 304.999C460.473 302.284 459.678 299.289 459.678 296.013V257.964C459.678 254.688 460.473 251.693 462.065 248.978C463.656 246.264 465.809 244.111 468.523 242.52C471.238 240.928 474.233 240.133 477.509 240.133H499.693C502.875 240.133 505.823 240.928 508.538 242.52C511.252 244.111 513.405 246.264 514.996 248.978C516.681 251.693 517.524 254.688 517.524 257.964V285.764H482.423V291.801C482.423 292.924 482.704 293.767 483.265 294.328C483.827 294.89 484.623 295.171 485.652 295.171H514.154V313.844H477.509ZM481.861 270.6H495.2V261.895C495.2 260.772 494.919 259.976 494.357 259.508C493.889 258.947 493.094 258.666 491.97 258.666H485.231C484.108 258.666 483.265 258.947 482.704 259.508C482.142 259.976 481.861 260.772 481.861 261.895V270.6Z" fill="#1C1C3F"/>
<path d="M389.92 313.853V216.273H412.665V248.987H413.367C414.397 246.741 416.082 244.728 418.422 242.95C420.855 241.078 423.663 240.142 426.846 240.142H431.058C434.334 240.142 437.282 240.891 439.903 242.388C442.524 243.886 444.583 245.992 446.081 248.706C447.672 251.327 448.468 254.229 448.468 257.411V296.022C448.468 299.298 447.625 302.294 445.941 305.008C444.349 307.722 442.197 309.875 439.482 311.466C436.768 313.058 433.819 313.853 430.637 313.853H389.92ZM422.915 292.793C424.038 292.793 424.833 292.512 425.301 291.951C425.863 291.389 426.144 290.593 426.144 289.564V264.432C426.144 263.308 425.863 262.513 425.301 262.045C424.833 261.483 424.038 261.202 422.915 261.202H417.579C416.269 261.202 415.239 261.39 414.49 261.764C413.742 262.138 413.133 262.747 412.665 263.589C412.291 264.338 412.104 265.321 412.104 266.538V292.793H422.915Z" fill="#1C1C3F"/>
<path d="M336.558 315.248C333.282 315.248 330.286 314.453 327.572 312.861C324.857 311.27 322.705 309.117 321.113 306.403C319.522 303.688 318.727 300.693 318.727 297.417V257.964C318.727 254.688 319.522 251.693 321.113 248.978C322.705 246.264 324.857 244.111 327.572 242.52C330.286 240.928 333.282 240.133 336.558 240.133H359.443C362.626 240.133 365.574 240.928 368.289 242.52C371.003 244.111 373.156 246.264 374.747 248.978C376.432 251.693 377.275 254.688 377.275 257.964V297.417C377.275 300.693 376.432 303.688 374.747 306.403C373.156 309.117 371.003 311.27 368.289 312.861C365.574 314.453 362.626 315.248 359.443 315.248H336.558ZM351.721 294.188C352.844 294.188 353.64 293.907 354.108 293.345C354.67 292.784 354.95 291.988 354.95 290.959V264.422C354.95 263.299 354.67 262.504 354.108 262.036C353.64 261.474 352.844 261.193 351.721 261.193H344.28C343.157 261.193 342.314 261.474 341.753 262.036C341.191 262.504 340.91 263.299 340.91 264.422V290.959C340.91 291.988 341.191 292.784 341.753 293.345C342.314 293.907 343.157 294.188 344.28 294.188H351.721Z" fill="#1C1C3F"/>
<path d="M291.281 313.84C288.099 313.84 285.151 313.044 282.436 311.453C279.722 309.862 277.522 307.709 275.837 304.995C274.246 302.28 273.45 299.285 273.45 296.009V261.189H264.886V241.532H274.714L283.138 222.578H296.196V241.532H309.253V255.573L304.198 261.189H296.196V288.989C296.196 290.112 296.476 290.954 297.038 291.516C297.6 292.077 298.395 292.358 299.425 292.358H310.236V313.84H291.281Z" fill="#1C1C3F"/>
<path d="M200.98 313.853V216.273H223.726V267.24H229.061L238.608 241.546H259.248V252.076L248.296 276.927L260.23 303.323V313.853H238.889L229.061 287.879H223.726V313.853H200.98Z" fill="#1C1C3F"/>
<path d="M158.448 313.839C155.172 313.839 152.177 313.043 149.463 311.452C146.748 309.861 144.595 307.708 143.004 304.993C141.413 302.279 140.617 299.284 140.617 296.008V259.362C140.617 256.086 141.413 253.091 143.004 250.377C144.595 247.662 146.748 245.509 149.463 243.918C152.177 242.327 155.172 241.531 158.448 241.531H189.758V257.958L185.125 263.013H166.592C165.562 263.013 164.766 263.294 164.205 263.855C163.643 264.417 163.362 265.259 163.362 266.383V288.987C163.362 290.111 163.643 290.953 164.205 291.515C164.766 292.076 165.562 292.357 166.592 292.357H189.758V313.839H158.448Z" fill="#1C1C3F"/>
<path d="M88.7468 315.243C85.4708 315.243 82.5223 314.494 79.9015 312.996C77.2806 311.499 75.1746 309.439 73.5834 306.819C72.0857 304.104 71.3369 301.156 71.3369 297.973V286.881C71.3369 283.699 72.0857 280.797 73.5834 278.176C75.1746 275.462 77.2806 273.356 79.9015 271.858C82.5223 270.361 85.4708 269.612 88.7468 269.612H106.016V263.294C106.016 262.17 105.736 261.375 105.174 260.907C104.706 260.345 103.91 260.064 102.787 260.064H77.655V241.531H111.352C114.628 241.531 117.576 242.28 120.197 243.778C122.818 245.275 124.877 247.381 126.375 250.096C127.966 252.717 128.762 255.618 128.762 258.801V313.839H114.441L111.211 306.117H110.509C109.386 308.457 107.561 310.563 105.034 312.435C102.6 314.307 99.7919 315.243 96.6094 315.243H88.7468ZM101.102 296.99C102.226 296.99 103.162 296.803 103.91 296.429C104.753 295.961 105.361 295.352 105.736 294.603C106.204 293.761 106.438 292.778 106.438 291.655V284.775H96.469C95.3458 284.775 94.5034 285.056 93.9418 285.618C93.3801 286.179 93.0993 287.022 93.0993 288.145V293.761C93.0993 294.791 93.3801 295.586 93.9418 296.148C94.5034 296.71 95.3458 296.99 96.469 296.99H101.102Z" fill="#1C1C3F"/>
<path d="M0 313.844V215.562H23.4473V253.471H35.8027V215.562H59.25V313.844H35.8027V275.234H23.4473V313.844H0Z" fill="#1C1C3F"/>
<rect x="405.886" y="152.266" width="10.8221" height="10.8221" fill="#A0A0FF"/>
<rect x="416.709" y="152.266" width="10.8221" height="10.8221" fill="#A0A0FF"/>
<rect x="416.709" y="141.438" width="10.8221" height="10.8221" fill="#5A5AB5"/>
<rect x="427.53" y="130.617" width="10.8221" height="10.8221" fill="#A0A0FF"/>
<rect x="427.53" y="119.789" width="10.8221" height="10.8221" fill="#5A5AB5"/>
<rect width="10.8221" height="10.8221" transform="matrix(1 0 0 -1 405.886 11.5781)" fill="#A0A0FF"/>
<rect width="10.8221" height="10.8221" transform="matrix(1 0 0 -1 416.709 11.5781)" fill="#A0A0FF"/>
<rect width="10.8221" height="10.8221" transform="matrix(1 0 0 -1 416.709 22.3906)" fill="#5A5AB5"/>
<rect width="10.8221" height="10.8221" transform="matrix(1 0 0 -1 427.53 33.2188)" fill="#A0A0FF"/>
<rect width="10.8221" height="10.8221" transform="matrix(1 0 0 -1 427.53 44.0391)" fill="#5A5AB5"/>
<rect width="10.8221" height="10.8221" transform="matrix(-1 0 0 1 395.064 152.266)" fill="#A0A0FF"/>
<rect width="10.8221" height="10.8221" transform="matrix(-1 0 0 1 384.241 152.266)" fill="#A0A0FF"/>
<rect width="10.8221" height="10.8221" transform="matrix(-1 0 0 1 384.241 141.438)" fill="#5A5AB5"/>
<rect width="10.8221" height="10.8221" transform="matrix(-1 0 0 1 373.42 130.617)" fill="#A0A0FF"/>
<rect width="10.8221" height="10.8221" transform="matrix(-1 0 0 1 373.42 119.789)" fill="#5A5AB5"/>
<rect x="395.064" y="11.5781" width="10.8221" height="10.8221" transform="rotate(180 395.064 11.5781)" fill="#A0A0FF"/>
<rect x="384.241" y="11.5781" width="10.8221" height="10.8221" transform="rotate(180 384.241 11.5781)" fill="#A0A0FF"/>
<rect x="384.241" y="22.3906" width="10.8221" height="10.8221" transform="rotate(180 384.241 22.3906)" fill="#5A5AB5"/>
<rect x="373.42" y="33.2188" width="10.8221" height="10.8221" transform="rotate(180 373.42 33.2188)" fill="#A0A0FF"/>
<rect x="373.42" y="44.0391" width="10.8221" height="10.8221" transform="rotate(180 373.42 44.0391)" fill="#5A5AB5"/>
<rect x="427.53" y="0.75" width="10.8221" height="10.8221" fill="#5A5AB5"/>
<rect x="438.352" y="11.5781" width="10.8221" height="10.8221" fill="#A0A0FF"/>
<rect x="449.175" y="11.5781" width="10.8221" height="10.8221" fill="#5A5AB5"/>
<rect x="459.996" y="22.3906" width="10.8221" height="10.8221" fill="#5A5AB5"/>
<rect x="470.819" y="33.2188" width="10.8221" height="10.8221" fill="#5A5AB5"/>
<rect x="481.641" y="44.0391" width="10.8221" height="10.8221" fill="#5A5AB5"/>
<rect x="481.641" y="54.8594" width="10.8221" height="10.8221" fill="#5A5AB5"/>
<rect x="492.462" y="65.6797" width="10.8221" height="10.8221" fill="#5A5AB5"/>
<rect width="10.8221" height="10.8221" transform="matrix(1 0 0 -1 427.53 163.078)" fill="#5A5AB5"/>
<rect width="10.8221" height="10.8221" transform="matrix(1 0 0 -1 438.352 152.266)" fill="#A0A0FF"/>
<rect width="10.8221" height="10.8221" transform="matrix(1 0 0 -1 449.175 152.266)" fill="#5A5AB5"/>
<rect width="10.8221" height="10.8221" transform="matrix(1 0 0 -1 459.996 141.438)" fill="#5A5AB5"/>
<rect width="10.8221" height="10.8221" transform="matrix(1 0 0 -1 470.819 130.617)" fill="#5A5AB5"/>
<rect width="10.8221" height="10.8221" transform="matrix(1 0 0 -1 481.641 119.789)" fill="#5A5AB5"/>
<rect width="10.8221" height="10.8221" transform="matrix(1 0 0 -1 481.641 108.969)" fill="#5A5AB5"/>
<rect width="10.8221" height="10.8221" transform="matrix(1 0 0 -1 492.462 98.1484)" fill="#5A5AB5"/>
<rect width="10.8221" height="10.8221" transform="matrix(-1 0 0 1 373.42 0.75)" fill="#5A5AB5"/>
<rect width="10.8221" height="10.8221" transform="matrix(-1 0 0 1 362.598 11.5781)" fill="#A0A0FF"/>
<rect width="10.8221" height="10.8221" transform="matrix(-1 0 0 1 351.775 11.5781)" fill="#5A5AB5"/>
<rect width="10.8221" height="10.8221" transform="matrix(-1 0 0 1 340.954 22.3906)" fill="#5A5AB5"/>
<rect width="10.8221" height="10.8221" transform="matrix(-1 0 0 1 330.131 33.2188)" fill="#5A5AB5"/>
<rect width="10.8221" height="10.8221" transform="matrix(-1 0 0 1 319.31 44.0391)" fill="#5A5AB5"/>
<rect width="10.8221" height="10.8221" transform="matrix(-1 0 0 1 319.31 54.8594)" fill="#5A5AB5"/>
<rect width="10.8221" height="10.8221" transform="matrix(-1 0 0 1 308.487 65.6797)" fill="#5A5AB5"/>
<rect x="373.42" y="163.078" width="10.8221" height="10.8221" transform="rotate(180 373.42 163.078)" fill="#5A5AB5"/>
<rect x="362.598" y="152.266" width="10.8221" height="10.8221" transform="rotate(180 362.598 152.266)" fill="#A0A0FF"/>
<rect x="351.775" y="152.266" width="10.8221" height="10.8221" transform="rotate(180 351.775 152.266)" fill="#5A5AB5"/>
<rect x="340.954" y="141.438" width="10.8221" height="10.8221" transform="rotate(180 340.954 141.438)" fill="#5A5AB5"/>
<rect x="330.131" y="130.617" width="10.8221" height="10.8221" transform="rotate(180 330.131 130.617)" fill="#5A5AB5"/>
<rect x="319.31" y="119.789" width="10.8221" height="10.8221" transform="rotate(180 319.31 119.789)" fill="#5A5AB5"/>
<rect x="319.31" y="108.969" width="10.8221" height="10.8221" transform="rotate(180 319.31 108.969)" fill="#5A5AB5"/>
<rect x="308.487" y="98.1484" width="10.8221" height="10.8221" transform="rotate(180 308.487 98.1484)" fill="#5A5AB5"/>
<rect x="449.175" y="0.75" width="10.8221" height="10.8221" fill="#A0A0FF"/>
<rect x="459.996" y="11.5781" width="10.8221" height="10.8221" fill="#A0A0FF"/>
<rect x="459.996" y="0.75" width="10.8221" height="10.8221" fill="#5A5AB5"/>
<rect x="470.819" y="11.5781" width="10.8221" height="10.8221" fill="#5A5AB5"/>
<rect x="481.641" y="22.3906" width="10.8221" height="10.8221" fill="#5A5AB5"/>
<rect x="481.641" y="11.5781" width="10.8221" height="10.8221" fill="#A0A0FF"/>
<rect x="492.462" y="22.3906" width="10.8221" height="10.8221" fill="#A0A0FF"/>
<rect x="503.285" y="33.2188" width="10.8221" height="10.8221" fill="#5A5AB5"/>
<rect x="514.106" y="44.0391" width="10.8221" height="10.8221" fill="#5A5AB5"/>
<rect x="524.928" y="54.8594" width="10.8221" height="10.8221" fill="#5A5AB5"/>
<rect x="524.928" y="65.6797" width="10.8221" height="10.8221" fill="#A0A0FF"/>
<rect x="438.352" y="0.75" width="10.8221" height="10.8221" fill="#A0A0FF"/>
<rect width="10.8221" height="10.8221" transform="matrix(1 0 0 -1 449.175 163.078)" fill="#A0A0FF"/>
<rect width="10.8221" height="10.8221" transform="matrix(1 0 0 -1 438.352 163.078)" fill="#A0A0FF"/>
<rect width="10.8221" height="10.8221" transform="matrix(1 0 0 -1 459.996 152.266)" fill="#A0A0FF"/>
<rect width="10.8221" height="10.8221" transform="matrix(1 0 0 -1 459.996 163.078)" fill="#5A5AB5"/>
<rect width="10.8221" height="10.8221" transform="matrix(1 0 0 -1 470.819 152.266)" fill="#5A5AB5"/>
<rect width="10.8221" height="10.8221" transform="matrix(1 0 0 -1 481.641 141.438)" fill="#5A5AB5"/>
<rect width="10.8221" height="10.8221" transform="matrix(1 0 0 -1 481.641 152.266)" fill="#A0A0FF"/>
<rect width="10.8221" height="10.8221" transform="matrix(1 0 0 -1 492.462 141.438)" fill="#A0A0FF"/>
<rect width="10.8221" height="10.8221" transform="matrix(1 0 0 -1 503.285 130.617)" fill="#5A5AB5"/>
<rect width="10.8221" height="10.8221" transform="matrix(1 0 0 -1 514.106 119.789)" fill="#5A5AB5"/>
<rect width="10.8221" height="10.8221" transform="matrix(1 0 0 -1 524.928 108.969)" fill="#5A5AB5"/>
<rect width="10.8221" height="10.8221" transform="matrix(1 0 0 -1 524.928 98.1484)" fill="#A0A0FF"/>
<rect width="10.8221" height="10.8221" transform="matrix(-1 0 0 1 351.775 0.75)" fill="#A0A0FF"/>
<rect width="10.8221" height="10.8221" transform="matrix(-1 0 0 1 340.954 11.5781)" fill="#A0A0FF"/>
<rect width="10.8221" height="10.8221" transform="matrix(-1 0 0 1 340.954 0.75)" fill="#5A5AB5"/>
<rect width="10.8221" height="10.8221" transform="matrix(-1 0 0 1 330.131 11.5781)" fill="#5A5AB5"/>
<rect width="10.8221" height="10.8221" transform="matrix(-1 0 0 1 319.31 22.3906)" fill="#5A5AB5"/>
<rect width="10.8221" height="10.8221" transform="matrix(-1 0 0 1 319.31 11.5781)" fill="#A0A0FF"/>
<rect width="10.8221" height="10.8221" transform="matrix(-1 0 0 1 308.487 22.3906)" fill="#A0A0FF"/>
<rect width="10.8221" height="10.8221" transform="matrix(-1 0 0 1 297.665 33.2188)" fill="#5A5AB5"/>
<rect width="10.8221" height="10.8221" transform="matrix(-1 0 0 1 286.844 44.0391)" fill="#5A5AB5"/>
<rect width="10.8221" height="10.8221" transform="matrix(-1 0 0 1 276.021 54.8594)" fill="#5A5AB5"/>
<rect width="10.8221" height="10.8221" transform="matrix(-1 0 0 1 276.021 65.6797)" fill="#A0A0FF"/>
<rect width="10.8221" height="10.8221" transform="matrix(-1 0 0 1 362.598 0.75)" fill="#A0A0FF"/>
<rect x="351.775" y="163.078" width="10.8221" height="10.8221" transform="rotate(180 351.775 163.078)" fill="#A0A0FF"/>
<rect x="362.598" y="163.078" width="10.8221" height="10.8221" transform="rotate(180 362.598 163.078)" fill="#A0A0FF"/>
<rect x="340.954" y="152.266" width="10.8221" height="10.8221" transform="rotate(180 340.954 152.266)" fill="#A0A0FF"/>
<rect x="340.954" y="163.078" width="10.8221" height="10.8221" transform="rotate(180 340.954 163.078)" fill="#5A5AB5"/>
<rect x="330.131" y="152.266" width="10.8221" height="10.8221" transform="rotate(180 330.131 152.266)" fill="#5A5AB5"/>
<rect x="319.31" y="141.438" width="10.8221" height="10.8221" transform="rotate(180 319.31 141.438)" fill="#5A5AB5"/>
<rect x="319.31" y="152.266" width="10.8221" height="10.8221" transform="rotate(180 319.31 152.266)" fill="#A0A0FF"/>
<rect x="308.487" y="141.438" width="10.8221" height="10.8221" transform="rotate(180 308.487 141.438)" fill="#A0A0FF"/>
<rect x="297.665" y="130.617" width="10.8221" height="10.8221" transform="rotate(180 297.665 130.617)" fill="#5A5AB5"/>
<rect x="286.844" y="119.789" width="10.8221" height="10.8221" transform="rotate(180 286.844 119.789)" fill="#5A5AB5"/>
<rect x="276.021" y="108.969" width="10.8221" height="10.8221" transform="rotate(180 276.021 108.969)" fill="#5A5AB5"/>
<rect x="276.021" y="98.1484" width="10.8221" height="10.8221" transform="rotate(180 276.021 98.1484)" fill="#A0A0FF"/>
<rect x="492.462" y="11.5781" width="10.8221" height="10.8221" fill="#5A5AB5"/>
<rect x="503.285" y="11.5781" width="10.8221" height="10.8221" fill="#5A5AB5"/>
<rect x="503.285" y="22.3906" width="10.8221" height="10.8221" fill="#A0A0FF"/>
<rect x="514.106" y="22.3906" width="10.8221" height="10.8221" fill="#5A5AB5"/>
<rect x="524.928" y="22.3906" width="10.8221" height="10.8221" fill="#5A5AB5"/>
<rect x="524.928" y="33.2188" width="10.8221" height="10.8221" fill="#A0A0FF"/>
<rect x="535.751" y="33.2188" width="10.8221" height="10.8221" fill="#5A5AB5"/>
<rect x="535.751" y="44.0391" width="10.8221" height="10.8221" fill="#A0A0FF"/>
<rect x="546.572" y="44.0391" width="10.8221" height="10.8221" fill="#5A5AB5"/>
<rect x="557.396" y="54.8594" width="10.8221" height="10.8221" fill="#5A5AB5"/>
<rect x="557.396" y="65.6797" width="10.8221" height="10.8221" fill="#5A5AB5"/>
<rect width="10.8221" height="10.8221" transform="matrix(1 0 0 -1 492.462 152.266)" fill="#5A5AB5"/>
<rect width="10.8221" height="10.8221" transform="matrix(1 0 0 -1 503.285 152.266)" fill="#5A5AB5"/>
<rect width="10.8221" height="10.8221" transform="matrix(1 0 0 -1 503.285 141.438)" fill="#A0A0FF"/>
<rect width="10.8221" height="10.8221" transform="matrix(1 0 0 -1 514.106 141.438)" fill="#5A5AB5"/>
<rect width="10.8221" height="10.8221" transform="matrix(1 0 0 -1 524.928 141.438)" fill="#5A5AB5"/>
<rect width="10.8221" height="10.8221" transform="matrix(1 0 0 -1 524.928 130.617)" fill="#A0A0FF"/>
<rect width="10.8221" height="10.8221" transform="matrix(1 0 0 -1 535.751 130.617)" fill="#5A5AB5"/>
<rect width="10.8221" height="10.8221" transform="matrix(1 0 0 -1 535.751 119.789)" fill="#A0A0FF"/>
<rect width="10.8221" height="10.8221" transform="matrix(1 0 0 -1 546.572 119.789)" fill="#5A5AB5"/>
<rect width="10.8221" height="10.8221" transform="matrix(1 0 0 -1 557.396 108.969)" fill="#5A5AB5"/>
<rect width="10.8221" height="10.8221" transform="matrix(1 0 0 -1 557.396 98.1484)" fill="#5A5AB5"/>
<rect width="10.8221" height="10.8221" transform="matrix(-1 0 0 1 308.487 11.5781)" fill="#5A5AB5"/>
<rect width="10.8221" height="10.8221" transform="matrix(-1 0 0 1 297.665 11.5781)" fill="#5A5AB5"/>
<rect width="10.8221" height="10.8221" transform="matrix(-1 0 0 1 297.665 22.3906)" fill="#A0A0FF"/>
<rect width="10.8221" height="10.8221" transform="matrix(-1 0 0 1 286.844 22.3906)" fill="#5A5AB5"/>
<rect width="10.8221" height="10.8221" transform="matrix(-1 0 0 1 276.021 22.3906)" fill="#5A5AB5"/>
<rect width="10.8221" height="10.8221" transform="matrix(-1 0 0 1 276.021 33.2188)" fill="#A0A0FF"/>
<rect width="10.8221" height="10.8221" transform="matrix(-1 0 0 1 265.199 33.2188)" fill="#5A5AB5"/>
<rect width="10.8221" height="10.8221" transform="matrix(-1 0 0 1 265.199 44.0391)" fill="#A0A0FF"/>
<rect width="10.8221" height="10.8221" transform="matrix(-1 0 0 1 254.377 44.0391)" fill="#5A5AB5"/>
<rect width="10.8221" height="10.8221" transform="matrix(-1 0 0 1 243.555 54.8594)" fill="#5A5AB5"/>
<rect width="10.8221" height="10.8221" transform="matrix(-1 0 0 1 243.555 65.6797)" fill="#5A5AB5"/>
<rect x="308.487" y="152.266" width="10.8221" height="10.8221" transform="rotate(180 308.487 152.266)" fill="#5A5AB5"/>
<rect x="297.665" y="152.266" width="10.8221" height="10.8221" transform="rotate(180 297.665 152.266)" fill="#5A5AB5"/>
<rect x="297.665" y="141.438" width="10.8221" height="10.8221" transform="rotate(180 297.665 141.438)" fill="#A0A0FF"/>
<rect x="286.844" y="141.438" width="10.8221" height="10.8221" transform="rotate(180 286.844 141.438)" fill="#5A5AB5"/>
<rect x="276.021" y="141.438" width="10.8221" height="10.8221" transform="rotate(180 276.021 141.438)" fill="#5A5AB5"/>
<rect x="276.021" y="130.617" width="10.8221" height="10.8221" transform="rotate(180 276.021 130.617)" fill="#A0A0FF"/>
<rect x="265.199" y="130.617" width="10.8221" height="10.8221" transform="rotate(180 265.199 130.617)" fill="#5A5AB5"/>
<rect x="265.199" y="119.789" width="10.8221" height="10.8221" transform="rotate(180 265.199 119.789)" fill="#A0A0FF"/>
<rect x="254.377" y="119.789" width="10.8221" height="10.8221" transform="rotate(180 254.377 119.789)" fill="#5A5AB5"/>
<rect x="243.555" y="108.969" width="10.8221" height="10.8221" transform="rotate(180 243.555 108.969)" fill="#5A5AB5"/>
<rect x="243.555" y="98.1484" width="10.8221" height="10.8221" transform="rotate(180 243.555 98.1484)" fill="#5A5AB5"/>
<rect x="395.064" y="141.438" width="10.8221" height="10.8221" fill="#A0A0FF"/>
<rect x="395.064" y="119.789" width="10.8221" height="10.8221" fill="#A0A0FF"/>
<rect x="395.064" y="22.3906" width="10.8221" height="10.8221" fill="#5A5AB5"/>
<rect x="395.064" y="0.75" width="10.8221" height="10.8221" fill="#5A5AB5"/>
<rect x="395.064" y="152.266" width="10.8221" height="10.8221" fill="#5A5AB5"/>
<rect x="395.064" y="130.617" width="10.8221" height="10.8221" fill="#5A5AB5"/>
<rect x="395.064" y="33.2188" width="10.8221" height="10.8221" fill="#A0A0FF"/>
<rect x="395.064" y="11.5781" width="10.8221" height="10.8221" fill="#A0A0FF"/>
<rect x="297.665" y="76.5078" width="10.8221" height="10.8221" transform="rotate(90 297.665 76.5078)" fill="#5A5AB5"/>
<rect x="276.021" y="76.5078" width="10.8221" height="10.8221" transform="rotate(90 276.021 76.5078)" fill="#5A5AB5"/>
<rect x="503.285" y="76.5078" width="10.8221" height="10.8221" transform="rotate(90 503.285 76.5078)" fill="#A0A0FF"/>
<rect x="319.31" y="76.5078" width="10.8221" height="10.8221" transform="rotate(90 319.31 76.5078)" fill="#5A5AB5"/>
<rect x="524.928" y="76.5078" width="10.8221" height="10.8221" transform="rotate(90 524.928 76.5078)" fill="#A0A0FF"/>
<rect x="481.641" y="76.5078" width="10.8221" height="10.8221" transform="rotate(90 481.641 76.5078)" fill="#A0A0FF"/>
<rect x="546.572" y="76.5078" width="10.8221" height="10.8221" transform="rotate(90 546.572 76.5078)" fill="#A0A0FF"/>
<rect x="557.396" y="76.5078" width="10.8221" height="10.8221" transform="rotate(90 557.396 76.5078)" fill="#5A5AB5"/>
<rect x="568.217" y="76.5078" width="10.8221" height="10.8221" transform="rotate(90 568.217 76.5078)" fill="#5A5AB5"/>
<rect x="340.954" y="76.5078" width="10.8221" height="10.8221" transform="rotate(90 340.954 76.5078)" fill="#5A5AB5"/>
<rect x="286.844" y="76.5078" width="10.8221" height="10.8221" transform="rotate(90 286.844 76.5078)" fill="#A0A0FF"/>
<rect x="265.199" y="76.5078" width="10.8221" height="10.8221" transform="rotate(90 265.199 76.5078)" fill="#A0A0FF"/>
<rect x="254.377" y="76.5078" width="10.8221" height="10.8221" transform="rotate(90 254.377 76.5078)" fill="#5A5AB5"/>
<rect x="243.555" y="76.5078" width="10.8221" height="10.8221" transform="rotate(90 243.555 76.5078)" fill="#5A5AB5"/>
<rect x="330.131" y="76.5078" width="10.8221" height="10.8221" transform="rotate(90 330.131 76.5078)" fill="#A0A0FF"/>
<rect x="492.462" y="76.5078" width="10.8221" height="10.8221" transform="rotate(90 492.462 76.5078)" fill="#5A5AB5"/>
<rect x="308.487" y="76.5078" width="10.8221" height="10.8221" transform="rotate(90 308.487 76.5078)" fill="#A0A0FF"/>
<rect x="514.106" y="76.5078" width="10.8221" height="10.8221" transform="rotate(90 514.106 76.5078)" fill="#5A5AB5"/>
<rect x="470.819" y="76.5078" width="10.8221" height="10.8221" transform="rotate(90 470.819 76.5078)" fill="#5A5AB5"/>
<rect x="535.751" y="76.5078" width="10.8221" height="10.8221" transform="rotate(90 535.751 76.5078)" fill="#5A5AB5"/>
<rect x="340.954" y="130.617" width="10.8221" height="10.8221" fill="#A0A0FF"/>
<rect x="449.175" y="130.617" width="10.8221" height="10.8221" fill="#A0A0FF"/>
<rect width="10.8221" height="10.8221" transform="matrix(1 0 0 -1 340.954 33.2188)" fill="#A0A0FF"/>
<rect width="10.8221" height="10.8221" transform="matrix(1 0 0 -1 449.175 33.2188)" fill="#A0A0FF"/>
<path d="M408.633 102.908V60.9297H446.413V68.7257L442.215 72.9235H421.826V78.3207H439.217V90.3145H421.826V102.908H408.633Z" fill="#5A5AB5"/>
<path d="M358.866 102.908V60.9297H372.059V75.9219H390.05V60.9297H403.243V102.908H390.05V87.9157H372.059V102.908H358.866Z" fill="#5A5AB5"/>
</svg>
