<svg width="1281" height="162" viewBox="0 0 1281 162" fill="none" xmlns="http://www.w3.org/2000/svg">
<path d="M1258.76 135.383C1255.19 135.383 1251.88 134.49 1248.84 132.705C1245.79 130.919 1243.32 128.504 1241.43 125.458C1239.65 122.412 1238.75 119.052 1238.75 115.376V76.3068H1229.14V54.2517H1240.17L1249.62 32.9844H1264.27V54.2517H1278.93V70.0053L1273.25 76.3068H1264.27V107.499C1264.27 108.759 1264.59 109.704 1265.22 110.335C1265.85 110.965 1266.74 111.28 1267.9 111.28H1280.03V135.383H1258.76Z" fill="#1C1C3F"/>
<path d="M1163.68 135.381V113.326H1193.61C1194.77 113.326 1195.61 113.063 1196.13 112.538C1196.76 111.908 1197.08 111.12 1197.08 110.175V109.23C1197.08 108.285 1196.76 107.55 1196.13 107.025C1195.61 106.499 1194.66 106.027 1193.3 105.607L1179.28 101.353C1175.81 100.198 1172.92 98.8852 1170.61 97.4149C1168.41 95.8395 1166.67 93.8966 1165.41 91.586C1164.26 89.1705 1163.68 86.3348 1163.68 83.0791V74.2571C1163.68 70.5812 1164.57 67.2205 1166.36 64.1748C1168.25 61.1291 1170.72 58.7135 1173.76 56.9281C1176.81 55.1427 1180.12 54.25 1183.69 54.25H1220.4V70.0036L1214.72 76.305H1193.14C1191.99 76.305 1191.09 76.5676 1190.46 77.0927C1189.94 77.5128 1189.67 78.1955 1189.67 79.1407V79.9284C1189.67 80.7686 1189.99 81.5037 1190.62 82.1339C1191.25 82.764 1192.2 83.2366 1193.46 83.5517L1207.63 87.9627C1211.1 89.013 1213.94 90.3257 1216.14 91.9011C1218.45 93.3714 1220.19 95.2619 1221.34 97.5724C1222.5 99.8829 1223.07 102.666 1223.07 105.922V115.374C1223.07 119.05 1222.18 122.411 1220.4 125.456C1218.61 128.502 1216.19 130.918 1213.15 132.703C1210.1 134.488 1206.74 135.381 1203.07 135.381H1163.68Z" fill="#1C1C3F"/>
<path d="M1107.41 135.386C1103.73 135.386 1100.37 134.493 1097.32 132.708C1094.28 130.923 1091.86 128.507 1090.08 125.461C1088.29 122.416 1087.4 119.055 1087.4 115.379V72.6868C1087.4 69.0109 1088.29 65.6502 1090.08 62.6045C1091.86 59.5588 1094.28 57.1432 1097.32 55.3578C1100.37 53.5724 1103.73 52.6797 1107.41 52.6797H1132.3C1135.87 52.6797 1139.18 53.5724 1142.22 55.3578C1145.27 57.1432 1147.68 59.5588 1149.47 62.6045C1151.36 65.6502 1152.3 69.0109 1152.3 72.6868V103.879H1112.92V110.653C1112.92 111.913 1113.24 112.858 1113.87 113.489C1114.5 114.119 1115.39 114.434 1116.54 114.434H1148.52V135.386H1107.41ZM1112.29 86.865H1127.26V77.0978C1127.26 75.8375 1126.94 74.9448 1126.31 74.4197C1125.79 73.7895 1124.89 73.4744 1123.63 73.4744H1116.07C1114.81 73.4744 1113.87 73.7895 1113.24 74.4197C1112.6 74.9448 1112.29 75.8375 1112.29 77.0978V86.865Z" fill="#1C1C3F"/>
<path d="M1035.13 44.3274C1035.13 40.6515 1036.02 37.2908 1037.81 34.2451C1039.59 31.1994 1042.01 28.7838 1045.05 26.9984C1048.1 25.213 1051.46 24.3203 1055.14 24.3203H1084.28V46.3754H1064.27C1063.12 46.3754 1062.22 46.6904 1061.59 47.3206C1060.96 47.8457 1060.65 48.7384 1060.65 49.9987V62.129H1077.98V77.5675L1074.99 84.184H1060.65V135.383H1035.13V44.3274Z" fill="#1C1C3F"/>
<path d="M976.341 135.386V54.255H992.41L996.033 62.9195H996.821C998.081 60.2939 1000.08 57.9309 1002.81 55.8304C1005.54 53.7299 1008.69 52.6797 1012.26 52.6797H1024.86V78.3581H1006.27C1005.22 78.3581 1004.38 78.5681 1003.75 78.9882C1003.12 79.3033 1002.65 79.7759 1002.33 80.406C1002.02 81.0362 1001.86 81.8764 1001.86 82.9266V135.386H976.341Z" fill="#1C1C3F"/>
<path d="M918.174 135.386C914.498 135.386 911.137 134.493 908.091 132.708C905.045 130.923 902.63 128.507 900.844 125.461C899.059 122.416 898.166 119.055 898.166 115.379V72.6868C898.166 69.0109 899.059 65.6502 900.844 62.6045C902.63 59.5588 905.045 57.1432 908.091 55.3578C911.137 53.5724 914.498 52.6797 918.174 52.6797H943.065C946.636 52.6797 949.944 53.5724 952.99 55.3578C956.036 57.1432 958.451 59.5588 960.237 62.6045C962.127 65.6502 963.073 69.0109 963.073 72.6868V103.879H923.687V110.653C923.687 111.913 924.003 112.858 924.633 113.489C925.263 114.119 926.156 114.434 927.311 114.434H959.292V135.386H918.174ZM923.057 86.865H938.024V77.0978C938.024 75.8375 937.709 74.9448 937.078 74.4197C936.553 73.7895 935.661 73.4744 934.4 73.4744H926.838C925.578 73.4744 924.633 73.7895 924.003 74.4197C923.372 74.9448 923.057 75.8375 923.057 77.0978V86.865Z" fill="#1C1C3F"/>
<path d="M819.896 135.378V25.8906H845.418V62.5965H846.206C847.361 60.0759 849.251 57.8179 851.877 55.8225C854.608 53.722 857.759 52.6717 861.33 52.6717H866.056C869.732 52.6717 873.04 53.5119 875.981 55.1923C878.922 56.8727 881.232 59.2357 882.913 62.2814C884.698 65.2221 885.591 68.4779 885.591 72.0487V115.371C885.591 119.047 884.646 122.408 882.755 125.453C880.97 128.499 878.554 130.915 875.508 132.7C872.462 134.485 869.154 135.378 865.583 135.378H819.896ZM856.918 111.748C858.179 111.748 859.071 111.433 859.597 110.803C860.227 110.172 860.542 109.28 860.542 108.124V79.9255C860.542 78.6652 860.227 77.7725 859.597 77.2474C859.071 76.6172 858.179 76.3021 856.918 76.3021H850.932C849.462 76.3021 848.306 76.5122 847.466 76.9323C846.626 77.3524 845.943 78.035 845.418 78.9803C844.998 79.8205 844.788 80.9232 844.788 82.2885V111.748H856.918Z" fill="#1C1C3F"/>
<path d="M760.017 136.961C756.341 136.961 752.981 136.069 749.935 134.283C746.889 132.498 744.473 130.082 742.688 127.037C740.902 123.991 740.01 120.63 740.01 116.954V72.6868C740.01 69.0109 740.902 65.6502 742.688 62.6045C744.473 59.5588 746.889 57.1432 749.935 55.3578C752.981 53.5724 756.341 52.6797 760.017 52.6797H785.696C789.267 52.6797 792.576 53.5724 795.621 55.3578C798.667 57.1432 801.083 59.5588 802.868 62.6045C804.759 65.6502 805.704 69.0109 805.704 72.6868V116.954C805.704 120.63 804.759 123.991 802.868 127.037C801.083 130.082 798.667 132.498 795.621 134.283C792.576 136.069 789.267 136.961 785.696 136.961H760.017ZM777.032 113.331C778.292 113.331 779.185 113.016 779.71 112.386C780.34 111.756 780.655 110.863 780.655 109.708V79.9334C780.655 78.6731 780.34 77.7804 779.71 77.2553C779.185 76.6252 778.292 76.3101 777.032 76.3101H768.682C767.422 76.3101 766.477 76.6252 765.846 77.2553C765.216 77.7804 764.901 78.6731 764.901 79.9334V109.708C764.901 110.863 765.216 111.756 765.846 112.386C766.477 113.016 767.422 113.331 768.682 113.331H777.032Z" fill="#1C1C3F"/>
<path d="M709.216 135.383C705.645 135.383 702.337 134.49 699.291 132.705C696.245 130.919 693.777 128.504 691.887 125.458C690.101 122.412 689.209 119.052 689.209 115.376V76.3068H679.599V54.2517H690.626L700.079 32.9844H714.73V54.2517H729.381V70.0053L723.71 76.3068H714.73V107.499C714.73 108.759 715.045 109.704 715.675 110.335C716.305 110.965 717.198 111.28 718.354 111.28H730.484V135.383H709.216Z" fill="#1C1C3F"/>
<path d="M607.893 135.378V25.8906H633.414V83.0762H639.401L650.113 54.2471H673.272V66.0623L660.984 93.9462L674.375 123.563V135.378H650.428L639.401 106.234H633.414V135.378H607.893Z" fill="#1C1C3F"/>
<path d="M560.169 135.381C556.493 135.381 553.132 134.488 550.086 132.703C547.04 130.918 544.625 128.502 542.839 125.456C541.054 122.411 540.161 119.05 540.161 115.374V74.2571C540.161 70.5812 541.054 67.2205 542.839 64.1748C544.625 61.1291 547.04 58.7135 550.086 56.9281C553.132 55.1427 556.493 54.25 560.169 54.25H595.3V72.6817L590.101 78.353H569.306C568.151 78.353 567.258 78.6681 566.628 79.2982C565.998 79.9284 565.683 80.8736 565.683 82.1339V107.497C565.683 108.757 565.998 109.703 566.628 110.333C567.258 110.963 568.151 111.278 569.306 111.278H595.3V135.381H560.169Z" fill="#1C1C3F"/>
<path d="M481.959 136.956C478.283 136.956 474.975 136.116 472.034 134.436C469.093 132.755 466.73 130.445 464.944 127.504C463.264 124.459 462.424 121.15 462.424 117.579V105.134C462.424 101.563 463.264 98.3076 464.944 95.3669C466.73 92.3212 469.093 89.9582 472.034 88.2778C474.975 86.5974 478.283 85.7572 481.959 85.7572H501.336V78.6681C501.336 77.4078 501.021 76.5151 500.391 75.99C499.866 75.3598 498.973 75.0448 497.713 75.0448H469.513V54.25H507.323C510.999 54.25 514.307 55.0902 517.248 56.7706C520.189 58.451 522.499 60.814 524.18 63.8597C525.965 66.8004 526.858 70.0561 526.858 73.6269V135.381H510.789L507.165 126.717H506.378C505.117 129.342 503.069 131.705 500.233 133.806C497.503 135.906 494.352 136.956 490.781 136.956H481.959ZM495.822 116.477C497.083 116.477 498.133 116.267 498.973 115.847C499.918 115.321 500.601 114.639 501.021 113.799C501.546 112.853 501.809 111.751 501.809 110.49V102.771H490.624C489.363 102.771 488.418 103.086 487.788 103.716C487.158 104.346 486.843 105.292 486.843 106.552V112.853C486.843 114.009 487.158 114.901 487.788 115.532C488.418 116.162 489.363 116.477 490.624 116.477H495.822Z" fill="#1C1C3F"/>
<path d="M382.381 135.385V25.1094H408.69V67.6441H422.554V25.1094H448.863V135.385H422.554V92.0622H408.69V135.385H382.381Z" fill="#1C1C3F"/>
<path fill-rule="evenodd" clip-rule="evenodd" d="M192.438 0.828125H203.126H203.127H213.816V11.5172H203.127H203.126H192.438V11.5217V22.2053H181.749V11.5217V11.5162V0.832622H192.438V0.828125ZM181.748 11.5217H171.059V22.2053V22.2108V32.8944H160.37V22.2108V22.2053V11.5217H171.059V11.5172H160.37V11.5217H149.68V0.832622H160.37V0.828125H171.059V0.832622H181.748V11.5217ZM192.438 118.408H203.127V129.097H192.438V118.408ZM203.127 129.101H192.438V139.785H181.749V150.474H192.438V150.479H181.749V161.168H192.438V161.162H203.126H203.127H213.816V150.479V150.473V139.789H203.127V129.101ZM203.126 150.473V139.79H192.438V150.473H203.126ZM181.748 150.479H171.059H171.059H160.37H149.68V161.168H160.37H171.059H171.059H181.748V150.479ZM192.438 22.2098V32.8935V32.8989V43.5825H203.127V32.8989V32.8935V22.2108H213.816V11.5217H203.126V22.2098H192.438ZM128.302 161.162H138.99V161.168H149.679V150.479H138.991V150.474H149.679V139.785H138.991V129.101H128.301V139.789H117.612V150.473V150.479V161.162H128.301H128.302ZM128.302 150.473H138.99V139.79H128.302V150.473ZM138.991 118.408H128.301V129.097H138.991V118.408ZM149.679 0.832622V11.5162V11.5217V22.2053H138.99V11.5217V11.5172H128.302H128.301H117.612V0.828125H128.301H128.302H138.991V0.832622H149.679ZM138.991 22.2098V32.8935V32.8989V43.5825H128.301V32.8989V32.8935V22.2108H117.612V11.5217H128.302V22.2098H138.991ZM213.817 11.5217H224.505H224.506H235.195V22.2053V22.2108V32.8944H224.506V32.8989H213.817V22.2108V22.2098V11.5217ZM235.196 32.8989H245.885V43.5825H256.574V54.2716H245.884V43.588H235.196V32.8989ZM245.884 54.2761H256.574V64.9652H245.884V54.2761ZM267.263 64.9697H256.573V75.6533H245.884H245.884H235.196H235.195H224.506V86.3424H235.195H235.196H245.884H245.884H256.573V97.0305H267.263V86.3424H267.263H267.263H277.952H277.952H288.641V97.0305H299.331V86.3424H299.331H299.331H310.02V75.6533H299.331H299.331H299.331V64.9697H288.641V75.6533H277.952H277.952H267.263H267.263H267.263V64.9697ZM288.642 75.6588H288.641V86.3415H288.642V75.6588ZM256.573 86.3415H256.574V75.6588H256.573V86.3415ZM213.817 139.79V139.789V129.101H224.505V129.096H235.195V139.785H224.506V139.789H235.195V150.473V150.479V161.162H224.506H224.505H213.817V150.479V150.473V139.79ZM245.884 129.101H235.196V118.412H245.885V129.096H256.573H256.574H267.263V139.785H256.574H256.573H245.884V129.101ZM256.574 118.408H245.884V107.724V107.719V97.035H256.574V107.719V107.724V118.408ZM117.612 11.5217H106.923H106.922H96.2333V22.2053V22.2108V32.8944H106.923V32.8989H117.612V22.2098H117.612V11.5217ZM96.2325 32.8989H85.5432V43.5825H74.8543V54.2716H85.5437V43.588H96.2325V32.8989ZM85.5437 54.2761H74.8543V64.9652H85.5437V54.2761ZM64.1654 64.9697H74.8548V75.6533H85.5432H85.5437H96.2325V86.3424H85.5437H85.5432H74.8548V97.0305H64.1654V86.3424V86.3415V75.6588V75.6533V64.9697ZM106.922 161.162H96.2333V150.479V150.473V139.789H106.922H106.923V139.785H96.2333V129.096H106.923V129.101H117.612V139.79H117.612V150.473V150.479V161.162H106.923H106.922ZM85.5437 129.101H96.2325V118.412H85.5432V129.096H74.8548H74.8543H64.1654V139.785H74.8543H74.8548H85.5437V129.101ZM74.8543 118.408H85.5437V107.724V107.719V97.035H74.8543V107.719V107.724V118.408ZM213.817 0.828125H224.505H224.506H235.195V11.5172H224.506H224.505H213.817V0.828125ZM245.884 11.5217H235.196V22.2108H245.884V32.8944H256.573H256.574H267.263V22.2108V22.2053V11.5217H256.574H256.573H245.885H245.884ZM277.953 32.8989H267.263V43.588H277.952V54.2716H288.642V43.588H299.331V32.8989H288.641V43.5825H277.953V32.8989ZM299.331 54.2761H288.641V64.9652H299.331V54.2761ZM235.196 150.479H245.884H245.885H256.573H256.574H267.263V139.789H256.574H256.573H245.885H245.884H235.196V150.479ZM267.263 118.412V129.096V129.101V139.785H277.952H277.953H288.641H288.642H299.331V129.101V129.096V118.412H288.641V129.096H277.953V118.412H267.263ZM288.642 118.408H277.952V107.719H288.641V97.035H299.331V107.724H288.642V118.408ZM117.612 0.828125H106.923H106.922H96.2333V11.5172H106.922H106.923H117.612V0.828125ZM85.5437 11.5217H96.2325V22.2108H85.5437V32.8944H74.8548H74.8543H64.1654V22.2108V22.2053V11.5217H74.8543H74.8548H85.5432H85.5437ZM53.4753 32.8989H64.1646V43.588H53.4757V54.2716H42.7864V43.588H32.0975V32.8989H42.7868V43.5825H53.4753V32.8989ZM32.0975 54.2761H42.7868V64.9652H32.0975V54.2761ZM42.7868 64.9697H32.0975V75.6533V75.6588V86.3415L32.0975 86.3424L32.0975 97.0305H42.7868V86.3424H53.4753H53.4757H64.1646V75.6533H53.4757H53.4753H42.7868V64.9697ZM96.2325 150.479H85.5437H85.5432H74.8548H74.8543H64.1654V139.789H74.8543H74.8548H85.5432H85.5437H96.2325V150.479ZM64.1646 118.412V129.096V129.101V139.785H53.4757H53.4753H42.7868H42.7864H32.0975V129.101V129.096V118.412H42.7868V129.096H53.4753V118.412H64.1646ZM42.7864 118.408H53.4757V107.719H42.7868V97.035H32.0975V107.724H42.7864V118.408ZM277.953 11.5217H267.263V22.2053V22.2108V32.8944H277.952H277.953H288.641H288.642H299.331V22.2053H288.642H288.641H277.953V11.5217ZM299.331 32.8989H310.021V43.5825H320.71V54.2716H310.021H310.02H299.331V43.588V43.5825V32.8989ZM331.4 54.2761H320.71V64.9652H331.4V54.2761ZM320.71 64.9697H331.4V75.6588H331.399V86.3415H331.4V97.0305H320.71V86.3424H320.71H310.021V75.6533H320.71H320.71V64.9697ZM267.263 150.479H277.953V139.789H267.263V150.479ZM310.021 129.101H299.331V118.412H310.021V129.101ZM299.331 118.408H310.02H310.021H320.71V107.719H310.021H310.02H299.331V118.408ZM320.71 107.724H331.4V97.035H320.71V107.724ZM53.4753 11.5217H64.1646V22.2053V22.2108V32.8944H53.4757H53.4753H42.7868H42.7864H32.0975V22.2053H42.7864H42.7868H53.4753V11.5217ZM32.0967 32.8989H21.4073V43.5825H10.7185V54.2716H21.4073H21.4078H32.0967V43.588V43.5825V32.8989ZM0.0283208 54.2761H10.7177V64.9652H0.0283208V54.2761ZM10.7177 64.9697H0.0283208V75.6533V75.6588V86.3415L0.0283203 86.3424L0.0283208 97.0305H10.7177V86.3424V86.3415V75.6588V75.6533V64.9697ZM64.1646 150.479H53.4753V139.789H64.1646V150.479ZM21.4073 129.101H32.0967V118.412H21.4073V129.101ZM32.0967 118.408H21.4078H21.4073H10.7185V107.719H21.4073H21.4078H32.0967V118.408ZM10.7177 107.724H0.0283208V97.035H10.7177V107.724ZM160.37 150.474V139.79V139.785V129.101H171.059V139.785V139.79V150.474H160.37ZM171.059 118.408H160.37V129.097H171.059V118.408ZM160.37 32.8989H171.059V43.588H160.37V32.8989ZM106.923 86.3424V75.6533H96.2333V86.3424H106.923ZM32.0967 86.3424V75.6533H21.4078H21.4073H10.7185V86.3424H21.4073H21.4078H32.0967Z" fill="#1C1C3F"/>
<path d="M173.771 101.728V60.2656H211.088V67.9658L206.941 72.112H186.802V77.4429H203.98V89.2893H186.802V101.728H173.771Z" fill="#1C1C3F"/>
<path d="M124.614 101.728V60.2656H137.646V75.0736H155.416V60.2656H168.447V101.728H155.416V86.9201H137.646V101.728H124.614Z" fill="#1C1C3F"/>
</svg>
